<svg xmlns="http://www.w3.org/2000/svg" viewBox="0 0 1024 1024" width="1024" height="1024">
  <defs>
    <linearGradient id="navyGrad" x1="0" y1="0" x2="0" y2="1">
      <stop offset="0%"  stop-color="#1010C0"/>
      <stop offset="55%" stop-color="#00007B"/>
      <stop offset="100%" stop-color="#00004E"/>
    </linearGradient>
    <linearGradient id="navyGradDiag" x1="0" y1="0" x2="1" y2="1">
      <stop offset="0%"  stop-color="#1414D2"/>
      <stop offset="60%" stop-color="#00007B"/>
      <stop offset="100%" stop-color="#00004E"/>
    </linearGradient>
    <linearGradient id="cyanGrad" x1="0" y1="0" x2="1" y2="1">
      <stop offset="0%" stop-color="#7AEEFF"/>
      <stop offset="100%" stop-color="#00D4FF"/>
    </linearGradient>
    <linearGradient id="steelGrad" x1="0" y1="0" x2="1" y2="1">
      <stop offset="0%" stop-color="#FFFFFF"/>
      <stop offset="100%" stop-color="#E7E7FF"/>
    </linearGradient>
    <radialGradient id="innerLight" cx="0.32" cy="0.24" r="0.9">
      <stop offset="0%"  stop-color="#FFFFFF" stop-opacity="0.20"/>
      <stop offset="55%" stop-color="#FFFFFF" stop-opacity="0.05"/>
      <stop offset="100%" stop-color="#FFFFFF" stop-opacity="0"/>
    </radialGradient>
    <filter id="cyanGlow" x="-40%" y="-40%" width="180%" height="180%">
      <feGaussianBlur stdDeviation="13" result="b"/>
      <feMerge><feMergeNode in="b"/><feMergeNode in="SourceGraphic"/></feMerge>
    </filter>
    <filter id="softShadow" x="-25%" y="-25%" width="150%" height="150%">
      <feGaussianBlur in="SourceAlpha" stdDeviation="9"/>
      <feOffset dx="0" dy="7" result="o"/>
      <feComponentTransfer><feFuncA type="linear" slope="0.34"/></feComponentTransfer>
      <feMerge><feMergeNode/><feMergeNode in="SourceGraphic"/></feMerge>
    </filter>
  </defs>

  <rect x="0" y="0" width="1024" height="1024" rx="225" ry="225" fill="url(#navyGrad)"/>
  <rect x="0" y="0" width="1024" height="1024" rx="225" ry="225" fill="url(#innerLight)"/>
  <g filter="url(#softShadow)">
    <rect x="288" y="478" width="20" height="222" rx="10" fill="#FFFFFF"/>
    <rect x="248" y="520" width="100" height="140" rx="22" fill="#FFFFFF"/>
  </g>
  <g filter="url(#softShadow)">
    <rect x="436" y="410" width="20" height="226" rx="10" fill="#FFFFFF"/>
    <rect x="396" y="448" width="100" height="148" rx="22" fill="#FFFFFF"/>
  </g>
  <g filter="url(#softShadow)">
    <rect x="584" y="336" width="20" height="224" rx="10" fill="#FFFFFF"/>
    <rect x="544" y="372" width="100" height="148" rx="22" fill="#FFFFFF"/>
  </g>
  <g filter="url(#softShadow)">
    <rect x="732" y="262" width="20" height="230" rx="10" fill="url(#cyanGrad)"/>
    <rect x="692" y="300" width="100" height="152" rx="22" fill="url(#cyanGrad)"/>
  </g>
  <g filter="url(#cyanGlow)"><rect x="150" y="726" width="724" height="42" rx="21" fill="url(#cyanGrad)"/></g>
</svg>
